<?xml version="1.0" standalone="no"?>
<!DOCTYPE svg PUBLIC "-//W3C//DTD SVG 20010904//EN"
 "http://www.w3.org/TR/2001/REC-SVG-20010904/DTD/svg10.dtd">
<svg version="1.0" xmlns="http://www.w3.org/2000/svg"
 width="96.000000pt" height="96.000000pt" viewBox="0 0 96.000000 96.000000"
 preserveAspectRatio="xMidYMid meet">

<g transform="translate(0.000000,96.000000) scale(0.100000,-0.100000)"
fill="#000000" stroke="none">
<path d="M84 802 c3 -43 12 -102 20 -130 12 -47 11 -57 -7 -109 -55 -164 41
-346 232 -441 67 -33 84 -37 151 -37 68 0 84 4 152 38 191 94 286 276 231 440
-18 52 -19 62 -7 109 20 74 30 208 16 208 -18 0 -165 -49 -191 -64 -21 -12
-31 -12 -65 2 -27 10 -74 15 -136 15 -62 0 -109 -5 -136 -15 -34 -14 -44 -14
-65 -2 -26 15 -173 64 -191 64 -7 0 -9 -24 -4 -78z m164 -61 l53 -30 47 22
c67 31 197 31 264 0 l47 -22 53 30 c85 46 90 40 63 -65 -15 -55 -14 -62 6
-122 38 -112 11 -203 -84 -291 -25 -23 -69 -54 -99 -69 -107 -56 -226 -32
-335 69 -95 88 -122 179 -84 291 20 60 21 67 6 122 -27 105 -22 111 63 65z"/>
<path d="M251 552 c-17 -12 -9 -50 17 -82 20 -24 96 -38 121 -22 17 12 9 50
-17 82 -20 24 -96 38 -121 22z"/>
<path d="M613 550 c-23 -9 -53 -57 -53 -84 0 -20 40 -30 86 -22 53 11 98 95
58 110 -22 8 -65 6 -91 -4z"/>
<path d="M402 348 c2 -6 21 -25 41 -42 l37 -29 37 29 c59 48 55 54 -37 54 -59
0 -81 -3 -78 -12z"/>
</g>
</svg>
